<mxfile host="app.diagrams.net" modified="2023-09-04T17:22:08.641Z" agent="Mozilla/5.0 (Windows NT 10.0; Win64; x64) AppleWebKit/537.36 (KHTML, like Gecko) Chrome/116.0.0.0 Safari/537.36" version="21.7.2" etag="50mi8OTSM5Z_osg4B2Mf" type="github">
  <diagram name="Pagina-1" id="0ofMosN8RsIlVKnNcFGN">
    <mxGraphModel>
      <root>
        <mxCell id="0" />
        <mxCell id="1" parent="0" />
      </root>
    </mxGraphModel>
  </diagram>
</mxfile>
